<svg width="24" height="24" viewBox="0 0 24 24" fill="none" xmlns="http://www.w3.org/2000/svg">
<path fill-rule="evenodd" clip-rule="evenodd" d="M9.49963 3.94938C8.73197 3.53441 8.10223 3.194 7.59712 2.97613C7.1109 2.7664 6.54501 2.57747 5.97666 2.69973C5.22496 2.86143 4.59624 3.37349 4.28575 4.07691C4.05099 4.60876 4.12148 5.20117 4.22845 5.71978C4.33958 6.25853 4.54549 6.94415 4.7965 7.77992L6.06381 11.9999L4.79649 16.2198C4.54549 17.0556 4.33958 17.7412 4.22845 18.28C4.12148 18.7986 4.05099 19.391 4.28575 19.9228C4.59624 20.6262 5.22496 21.1383 5.97666 21.3C6.54501 21.4223 7.1109 21.2333 7.59712 21.0236C8.10222 20.8057 8.73195 20.4653 9.49959 20.0504L20.3594 14.1802C20.7528 13.9675 21.1012 13.7792 21.3651 13.6037C21.6298 13.4277 21.9467 13.1792 22.1243 12.7921C22.355 12.2891 22.355 11.7106 22.1243 11.2076C21.9467 10.8205 21.6298 10.572 21.3651 10.396C21.1012 10.2205 20.7528 10.0322 20.3594 9.81955L9.49963 3.94938ZM5.90673 5.21858C5.75282 4.7061 6.29596 4.26374 6.76668 4.51818L20.4449 11.9118C20.4694 11.9251 20.4791 11.9378 20.4846 11.9475C20.4917 11.9599 20.4973 11.978 20.4973 11.9998C20.4973 12.0217 20.4917 12.0397 20.4846 12.0521C20.4791 12.0618 20.4694 12.0745 20.4449 12.0878L6.76668 19.4814C6.29596 19.7359 5.75282 19.2935 5.90673 18.781L7.67293 12.8999H13.0003C13.4974 12.8999 13.9003 12.4969 13.9003 11.9999C13.9003 11.5028 13.4974 11.0999 13.0003 11.0999H7.67297L5.90673 5.21858Z" fill="#D9D8DD"/>
</svg>
