<svg width="375" height="51" viewBox="0 0 375 51" fill="none" xmlns="http://www.w3.org/2000/svg">
<path fill-rule="evenodd" clip-rule="evenodd" d="M37.8611 8.27647C37.6243 8.21318 37.375 8.21318 37.1382 8.27647C36.8575 8.3515 36.6247 8.5333 36.5021 8.62905L36.467 8.65625L29.6338 13.8815C29.247 14.1768 28.9209 14.4257 28.6781 14.75C28.4648 15.035 28.3058 15.3568 28.209 15.6993C28.0988 16.0891 28.0992 16.4995 28.0997 16.9861L28.0997 23.335C28.0997 23.8648 28.0997 24.316 28.13 24.6865C28.1618 25.0756 28.2314 25.4542 28.4158 25.8161C28.6938 26.3618 29.1375 26.8055 29.6831 27.0835C30.0451 27.2679 30.4237 27.3375 30.8128 27.3693C31.1832 27.3996 31.6344 27.3996 32.1642 27.3996H37.4894C37.4929 27.3996 37.4964 27.3996 37.5 27.3996C37.5035 27.3996 37.507 27.3996 37.5106 27.3996H42.8351C43.3649 27.3996 43.8161 27.3996 44.1865 27.3693C44.5757 27.3375 44.9543 27.2679 45.3162 27.0835C45.8619 26.8055 46.3055 26.3618 46.5836 25.8161C46.768 25.4542 46.8376 25.0756 46.8694 24.6865C46.8997 24.316 46.8997 23.8649 46.8997 23.335L46.8997 16.9861C46.9002 16.4994 46.9005 16.0891 46.7904 15.6993C46.6936 15.3568 46.5346 15.035 46.3213 14.75C46.0785 14.4257 45.7523 14.1768 45.3655 13.8815L38.5323 8.65625L38.4973 8.62905C38.3747 8.5333 38.1419 8.3515 37.8611 8.27647ZM38.4 25.5994H43.1997C44.0142 25.5994 44.2081 25.5883 44.3396 25.5456C44.6745 25.4368 44.937 25.1742 45.0458 24.8393C45.0886 24.7078 45.0997 24.514 45.0997 23.6994V16.883C45.0997 16.4628 45.0961 16.3673 45.0812 16.2869C45.0441 16.0871 44.9523 15.9014 44.8162 15.7506C44.7613 15.6899 44.6876 15.629 44.3538 15.3738L37.4997 10.1324L30.6456 15.3738C30.3117 15.629 30.2381 15.6899 30.1832 15.7506C30.0471 15.9014 29.9553 16.0871 29.9182 16.2869C29.9033 16.3673 29.8997 16.4628 29.8997 16.883V23.6994C29.8997 24.514 29.9108 24.7078 29.9536 24.8393C30.0624 25.1742 30.3249 25.4368 30.6598 25.5456C30.7913 25.5883 30.9852 25.5994 31.7997 25.5994H36.6V19.9996C36.6 19.5026 37.0029 19.0996 37.5 19.0996C37.997 19.0996 38.4 19.5026 38.4 19.9996V25.5994Z" fill="#989BA2"/>
<path d="M40.8032 44.7949H34.1538V42.0127H40.8032V44.7949ZM35.1636 44.0107H39.8149V42.7969H35.1636V44.0107ZM41.3833 36.835H33.5522V36.0508H36.979V35.1592H37.9995V36.0508H41.3833V36.835ZM37.4839 37.1787C38.508 37.1787 39.2904 37.2951 39.8311 37.5278C40.3717 37.757 40.6421 38.0954 40.6421 38.543C40.6421 38.9512 40.4165 39.2699 39.9653 39.499C39.5142 39.7246 38.8589 39.8571 37.9995 39.8965V40.5518H41.8774V41.3574H33.1011V40.5518H36.979V39.8965C36.1196 39.8571 35.4608 39.7246 35.0024 39.499C34.5477 39.2699 34.3221 38.9512 34.3257 38.543C34.3221 38.0954 34.5924 37.757 35.1367 37.5278C35.681 37.2951 36.4634 37.1787 37.4839 37.1787ZM37.4839 37.877C36.1017 37.8877 35.4106 38.1097 35.4106 38.543C35.4106 38.7578 35.5879 38.9225 35.9424 39.0371C36.3005 39.1517 36.8143 39.209 37.4839 39.209C38.1571 39.209 38.6709 39.1517 39.0254 39.0371C39.3799 38.9225 39.5571 38.7578 39.5571 38.543C39.5571 38.1097 38.866 37.8877 37.4839 37.877Z" fill="#989BA2"/>
<path d="M108.35 19.4994C108.35 19.0023 108.753 18.5994 109.25 18.5994H113.25C113.747 18.5994 114.15 19.0023 114.15 19.4994C114.15 19.9964 113.747 20.3994 113.25 20.3994H109.25C108.753 20.3994 108.35 19.9964 108.35 19.4994Z" fill="#989BA2"/>
<path d="M108.35 22.9999C108.35 22.5028 108.753 22.0999 109.25 22.0999H113.25C113.747 22.0999 114.15 22.5028 114.15 22.9999C114.15 23.4969 113.747 23.8999 113.25 23.8999H109.25C108.753 23.8999 108.35 23.4969 108.35 22.9999Z" fill="#989BA2"/>
<path fill-rule="evenodd" clip-rule="evenodd" d="M113.779 8.1525C113.556 8.09897 113.329 8.0995 113.137 8.09993L113.087 8.10001H108.414C107.884 8.1 107.433 8.09998 107.063 8.13025C106.674 8.16205 106.295 8.23168 105.933 8.41609C105.387 8.69413 104.944 9.13777 104.666 9.68344C104.481 10.0454 104.412 10.424 104.38 10.8131C104.35 11.1835 104.35 11.6347 104.35 12.1645V23.8354C104.35 24.3652 104.35 24.8165 104.38 25.1869C104.412 25.5761 104.481 25.9547 104.666 26.3166C104.944 26.8623 105.387 27.3059 105.933 27.5839C106.295 27.7683 106.674 27.838 107.063 27.8698C107.433 27.9 107.884 27.9 108.414 27.9H116.585C117.115 27.9 117.566 27.9 117.936 27.8698C118.326 27.838 118.704 27.7683 119.066 27.5839C119.612 27.3059 120.055 26.8623 120.333 26.3166C120.518 25.9547 120.588 25.5761 120.619 25.1869C120.65 24.8165 120.65 24.3653 120.65 23.8355V15.6623L120.65 15.6121C120.65 15.4203 120.651 15.1932 120.597 14.9702C120.55 14.7763 120.474 14.591 120.37 14.421C120.25 14.2254 120.089 14.0652 119.953 13.9299L119.917 13.8945L114.854 8.83216L114.819 8.79663C114.684 8.66067 114.524 8.49977 114.328 8.37996C114.158 8.2758 113.973 8.19904 113.779 8.1525ZM113.1 9.90025C113.096 9.90025 113.091 9.90025 113.087 9.90025H108.45C107.875 9.90025 107.498 9.90095 107.209 9.92451C106.931 9.94721 106.816 9.98657 106.75 10.0201C106.543 10.1256 106.375 10.2939 106.269 10.5009C106.236 10.5667 106.197 10.6821 106.174 10.9599C106.15 11.2483 106.15 11.6253 106.15 12.2002V23.8002C106.15 24.3752 106.15 24.7522 106.174 25.0406C106.197 25.3184 106.236 25.4337 106.269 25.4996C106.375 25.7066 106.543 25.8749 106.75 25.9804C106.816 26.0139 106.931 26.0533 107.209 26.076C107.498 26.0995 107.875 26.1002 108.45 26.1002H116.55C117.124 26.1002 117.501 26.0995 117.79 26.076C118.068 26.0533 118.183 26.0139 118.249 25.9804C118.456 25.8749 118.624 25.7066 118.73 25.4996C118.763 25.4337 118.803 25.3184 118.825 25.0406C118.849 24.7522 118.85 24.3752 118.85 23.8002V15.9L115.57 15.9C115.316 15.9 115.074 15.9 114.87 15.8833C114.647 15.8652 114.392 15.8228 114.137 15.6929C113.78 15.5107 113.489 15.22 113.307 14.8625C113.177 14.6076 113.135 14.3525 113.117 14.13C113.1 13.9261 113.1 13.6841 113.1 13.4298L113.1 9.90025ZM117.577 14.1L114.9 11.4233V14C114.9 14.0552 114.945 14.1 115 14.1H117.577Z" fill="#989BA2"/>
<path d="M100.096 44.9131H99.1185V39.8965H97.9262V44.4404H96.9594V35.4707H97.9262V39.0586H99.1185V35.2881H100.096V44.9131ZM95.8744 42.3779H92.1361V36.373H95.8744V42.3779ZM93.1029 41.5615H94.9183V37.1787H93.1029V41.5615ZM104.391 35.6104C104.871 35.6139 105.301 35.7088 105.68 35.895C106.063 36.0776 106.364 36.3337 106.583 36.6631C106.801 36.9889 106.912 37.3577 106.916 37.7695C106.912 38.1849 106.801 38.5555 106.583 38.8813C106.364 39.2072 106.063 39.4614 105.68 39.644C105.301 39.8267 104.871 39.918 104.391 39.918C103.908 39.918 103.473 39.8267 103.086 39.644C102.703 39.4614 102.402 39.2072 102.184 38.8813C101.965 38.5555 101.856 38.1849 101.856 37.7695C101.856 37.3577 101.965 36.9889 102.184 36.6631C102.402 36.3337 102.703 36.0776 103.086 35.895C103.473 35.7088 103.908 35.6139 104.391 35.6104ZM104.391 36.4697C104.098 36.4661 103.833 36.5181 103.596 36.6255C103.364 36.7329 103.181 36.8869 103.049 37.0874C102.916 37.2843 102.852 37.5117 102.855 37.7695C102.852 38.0309 102.914 38.2619 103.043 38.4624C103.176 38.6629 103.358 38.8187 103.591 38.9297C103.827 39.0371 104.094 39.0908 104.391 39.0908C104.685 39.0908 104.948 39.0353 105.181 38.9243C105.414 38.8133 105.596 38.6593 105.729 38.4624C105.861 38.2619 105.927 38.0309 105.927 37.7695C105.927 37.5117 105.861 37.2843 105.729 37.0874C105.596 36.8869 105.412 36.7329 105.175 36.6255C104.943 36.5181 104.681 36.4661 104.391 36.4697ZM109.644 40.1865H108.624V35.2881H109.644V40.1865ZM109.644 43.0547H104.338V43.9785H109.966V44.7949H103.349V42.292H108.634V41.4434H103.317V40.627H109.644V43.0547ZM117.268 35.6104C117.748 35.6139 118.177 35.7088 118.557 35.895C118.94 36.0776 119.241 36.3337 119.459 36.6631C119.678 36.9889 119.789 37.3577 119.792 37.7695C119.789 38.1849 119.678 38.5555 119.459 38.8813C119.241 39.2072 118.94 39.4614 118.557 39.644C118.177 39.8267 117.748 39.918 117.268 39.918C116.784 39.918 116.349 39.8267 115.963 39.644C115.58 39.4614 115.279 39.2072 115.06 38.8813C114.842 38.5555 114.733 38.1849 114.733 37.7695C114.733 37.3577 114.842 36.9889 115.06 36.6631C115.279 36.3337 115.58 36.0776 115.963 35.895C116.349 35.7088 116.784 35.6139 117.268 35.6104ZM117.268 36.4697C116.974 36.4661 116.709 36.5181 116.473 36.6255C116.24 36.7329 116.058 36.8869 115.925 37.0874C115.793 37.2843 115.728 37.5117 115.732 37.7695C115.728 38.0309 115.791 38.2619 115.92 38.4624C116.052 38.6629 116.235 38.8187 116.468 38.9297C116.704 39.0371 116.971 39.0908 117.268 39.0908C117.562 39.0908 117.825 39.0353 118.057 38.9243C118.29 38.8133 118.473 38.6593 118.605 38.4624C118.738 38.2619 118.804 38.0309 118.804 37.7695C118.804 37.5117 118.738 37.2843 118.605 37.0874C118.473 36.8869 118.288 36.7329 118.052 36.6255C117.819 36.5181 117.558 36.4661 117.268 36.4697ZM122.521 40.1865H121.5V35.2881H122.521V40.1865ZM122.521 43.0547H117.214V43.9785H122.843V44.7949H116.226V42.292H121.511V41.4434H116.194V40.627H122.521V43.0547ZM127.933 38.124C127.933 38.6576 128.041 39.1857 128.255 39.7085C128.474 40.2313 128.775 40.6986 129.158 41.1104C129.545 41.5186 129.981 41.8265 130.468 42.0342L129.91 42.8291C129.348 42.582 128.85 42.2096 128.417 41.7119C127.983 41.2106 127.654 40.6359 127.428 39.9878C127.203 40.6789 126.872 41.2983 126.435 41.8462C126.001 42.394 125.509 42.804 124.958 43.0762L124.367 42.2705C124.839 42.0485 125.269 41.7173 125.656 41.2769C126.043 40.8328 126.345 40.3333 126.564 39.7783C126.786 39.2197 126.898 38.6683 126.902 38.124V37.1035H124.7V36.2549H130.125V37.1035H127.933V38.124ZM132.359 44.9131H131.338V35.2881H132.359V44.9131Z" fill="#989BA2"/>
<path fill-rule="evenodd" clip-rule="evenodd" d="M187.501 10.1501C183.165 10.1501 179.651 13.6647 179.651 18.0001C179.651 22.3355 183.165 25.8501 187.501 25.8501C188.862 25.8501 190.14 25.5044 191.254 24.8966C191.458 24.7853 191.697 24.7572 191.922 24.8184L194.036 25.3951C194.496 25.5205 194.781 25.5972 194.99 25.6341C195.064 25.6473 195.111 25.6517 195.138 25.6531C195.143 25.6484 195.149 25.643 195.154 25.6371C195.152 25.6107 195.148 25.5636 195.135 25.4893C195.098 25.2802 195.021 24.9953 194.896 24.5356L194.319 22.4211C194.258 22.1968 194.286 21.9575 194.397 21.7533C195.005 20.6392 195.351 19.3614 195.351 18.0001C195.351 13.6647 191.836 10.1501 187.501 10.1501ZM177.851 18.0001C177.851 12.6705 182.171 8.3501 187.501 8.3501C192.83 8.3501 197.151 12.6705 197.151 18.0001C197.151 19.5384 196.79 20.9948 196.148 22.2873L196.642 24.0998C196.754 24.5099 196.854 24.8758 196.907 25.1763C196.961 25.4809 196.998 25.867 196.85 26.2526C196.657 26.7579 196.258 27.157 195.753 27.3499C195.367 27.4971 194.981 27.4605 194.677 27.4067C194.376 27.3537 194.01 27.2539 193.6 27.142L191.788 26.6476C190.495 27.2895 189.039 27.6501 187.501 27.6501C182.171 27.6501 177.851 23.3296 177.851 18.0001Z" fill="#989BA2"/>
<path d="M170.133 36.8242C170.133 37.2467 170.226 37.6514 170.412 38.0381C170.602 38.4248 170.871 38.7668 171.218 39.064C171.569 39.3576 171.981 39.5814 172.453 39.7354L171.906 40.541C171.386 40.3584 170.932 40.0881 170.541 39.73C170.155 39.3683 169.856 38.9476 169.644 38.4678C169.433 39.0156 169.125 39.4919 168.721 39.8965C168.32 40.2975 167.842 40.6019 167.287 40.8096L166.739 39.9932C167.233 39.8177 167.657 39.5671 168.012 39.2412C168.37 38.9118 168.644 38.5322 168.833 38.1025C169.023 37.6729 169.12 37.2181 169.123 36.7383V35.793H170.133V36.8242ZM174.376 37.7051H175.773V38.5645H174.376V41.0996H173.356V35.2881H174.376V37.7051ZM171.272 41.3252C171.927 41.3252 172.495 41.3968 172.974 41.54C173.454 41.6797 173.821 41.8838 174.076 42.1523C174.333 42.4173 174.462 42.736 174.462 43.1084C174.462 43.4844 174.333 43.8066 174.076 44.0752C173.821 44.3438 173.454 44.5479 172.974 44.6875C172.495 44.8271 171.927 44.8952 171.272 44.8916C170.609 44.8952 170.035 44.8271 169.548 44.6875C169.061 44.5479 168.687 44.3438 168.425 44.0752C168.167 43.8066 168.038 43.4844 168.038 43.1084C168.038 42.736 168.167 42.4173 168.425 42.1523C168.687 41.8838 169.061 41.6797 169.548 41.54C170.035 41.3968 170.609 41.3252 171.272 41.3252ZM171.272 42.1309C170.81 42.1309 170.412 42.1702 170.079 42.249C169.746 42.3242 169.492 42.4352 169.317 42.582C169.141 42.7288 169.055 42.9043 169.059 43.1084C169.055 43.4235 169.247 43.6652 169.634 43.8335C170.02 44.0018 170.566 44.0895 171.272 44.0967C171.97 44.0895 172.509 44.0018 172.889 43.8335C173.272 43.6652 173.463 43.4235 173.463 43.1084C173.463 42.8005 173.27 42.5605 172.883 42.3887C172.5 42.2168 171.963 42.1309 171.272 42.1309ZM184.225 37.5762H185.622V38.4248H184.225V40.7236H183.205V35.2881H184.225V37.5762ZM181.368 36.749H178.102V39.4023C179.058 39.3988 179.839 39.3755 180.444 39.3325C181.049 39.286 181.647 39.2054 182.238 39.0908L182.356 39.9072C181.74 40.0397 181.114 40.1274 180.476 40.1704C179.839 40.2098 178.965 40.2295 177.855 40.2295H177.092V35.9219H181.368V36.749ZM184.225 44.7842H178.081V41.1963H184.225V44.7842ZM179.08 43.9678H183.216V42.0127H179.08V43.9678ZM192.45 37.3291C192.45 37.6872 192.526 38.0345 192.676 38.3711C192.826 38.7077 193.045 39.0103 193.331 39.2788C193.621 39.5474 193.965 39.7568 194.363 39.9072L193.879 40.6807C193.435 40.5088 193.054 40.2653 192.735 39.9502C192.416 39.6351 192.169 39.2699 191.994 38.8545C191.818 39.3128 191.57 39.7174 191.247 40.0684C190.925 40.4157 190.538 40.6842 190.087 40.874L189.582 40.1221C189.98 39.9574 190.322 39.73 190.608 39.4399C190.895 39.1499 191.111 38.8223 191.258 38.457C191.409 38.0918 191.484 37.7158 191.484 37.3291V37.3184H189.808V36.5127H191.484V35.4277H192.45V36.5127H194.105V37.3184H192.45V37.3291ZM197.746 41.7979H196.78V38.543H195.684V40.96H194.706V35.46H195.684V37.6943H196.78V35.2988H197.746V41.7979ZM194.996 41.5938C194.996 41.9805 195.14 42.3475 195.426 42.6948C195.713 43.0422 196.101 43.3376 196.592 43.5811C197.082 43.8245 197.625 43.9893 198.219 44.0752L197.865 44.8701C197.102 44.7555 196.422 44.5246 195.824 44.1772C195.226 43.8299 194.782 43.4038 194.492 42.8989C194.194 43.4038 193.747 43.8299 193.149 44.1772C192.551 44.5246 191.874 44.7555 191.118 44.8701L190.753 44.0752C191.351 43.9893 191.895 43.8245 192.386 43.5811C192.877 43.3376 193.263 43.0422 193.546 42.6948C193.833 42.3475 193.976 41.9805 193.976 41.5938V41.3789H194.996V41.5938ZM201.547 36.5449H206.005V35.5459H207.026V39.1123H204.276V40.1006H208.165V40.917H199.388V40.1006H203.277V39.1123H200.538V35.5459H201.547V36.5449ZM206.005 38.3066V37.3291H201.547V38.3066H206.005ZM204.287 41.7441C204.287 42.1201 204.425 42.4728 204.7 42.8022C204.976 43.1281 205.357 43.402 205.844 43.624C206.335 43.846 206.89 43.9964 207.509 44.0752L207.144 44.8701C206.371 44.752 205.687 44.5335 205.092 44.2148C204.502 43.8962 204.061 43.5005 203.771 43.0278C203.485 43.5005 203.046 43.8962 202.455 44.2148C201.864 44.5335 201.186 44.752 200.42 44.8701L200.044 44.0752C200.656 43.9964 201.206 43.846 201.693 43.624C202.179 43.402 202.561 43.1281 202.837 42.8022C203.116 42.4728 203.255 42.1201 203.255 41.7441V41.5078H204.287V41.7441Z" fill="#989BA2"/>
<path d="M259 21.1002C259 23.0002 260.55 24.5002 262.5 24.5002C264.45 24.5002 266 23.0002 266 21.1002C266 19.2002 264.45 17.7002 262.5 16.0002C260.55 17.7002 259 19.2002 259 21.1002Z" fill="#989BA2"/>
<path fill-rule="evenodd" clip-rule="evenodd" d="M264.764 7.83176C264.005 7.13309 262.811 7.30634 262.267 8.16348L259.31 12.8195L258.611 12.1899C257.988 11.6293 256.988 11.6006 256.36 12.2626C254.461 14.2632 253.35 16.8751 253.35 19.6006C253.35 22.1306 254.289 24.3447 255.932 25.9244C257.573 27.5021 259.867 28.4006 262.5 28.4006C267.828 28.4006 271.65 24.516 271.65 19.6006C271.65 15.4379 268.99 11.7212 264.764 7.83176ZM260.259 14.683L263.686 9.28607C267.758 13.0632 269.85 16.2844 269.85 19.6006C269.85 23.4853 266.871 26.6006 262.5 26.6006C260.282 26.6006 258.451 25.8491 257.18 24.6268C255.91 23.4065 255.15 21.6706 255.15 19.6006C255.15 17.4307 256.011 15.3127 257.534 13.6425L258.898 14.8696C259.094 15.0468 259.359 15.1282 259.622 15.0923C259.884 15.0564 260.117 14.9066 260.259 14.683Z" fill="#989BA2"/>
<path d="M248.237 36.2656C248.233 37.2826 248.101 38.2153 247.839 39.064C247.578 39.909 247.127 40.6986 246.486 41.4326C245.849 42.1631 244.982 42.8076 243.886 43.3662L243.317 42.5928C244.144 42.1667 244.828 41.6958 245.369 41.1802C245.909 40.6646 246.328 40.0952 246.626 39.4722L243.51 39.7676L243.349 38.8867L246.942 38.6611C247.089 38.1742 247.182 37.6514 247.222 37.0928H243.843V36.2656H248.237ZM251.341 44.9131H250.332V39.9395H248.215V39.1016H250.332V35.2881H251.341V44.9131ZM261.974 41.626H259.815V44.9668H258.795V41.626H256.378V44.9668H255.357V41.626H253.166V40.7881H261.974V41.626ZM260.868 39.585H254.272V35.793H260.868V39.585ZM255.271 38.7686H259.848V36.6094H255.271V38.7686ZM271.018 44.9131H269.997V35.2881H271.018V44.9131ZM264.626 41.583C266.202 41.5723 267.677 41.4255 269.052 41.1426L269.192 42.002C268.375 42.1667 267.577 42.2848 266.796 42.3564C266.015 42.4281 265.224 42.4639 264.422 42.4639H263.616V36.2227H264.626V41.583ZM278.224 36.9746H274.475V38.833H277.859V39.6494H274.475V41.8086C275.349 41.805 276.115 41.7817 276.774 41.7388C277.433 41.6958 278.11 41.6188 278.804 41.5078L278.912 42.335C278.188 42.4531 277.474 42.5337 276.769 42.5767C276.067 42.616 275.227 42.6357 274.249 42.6357H273.465V36.1367H278.224V36.9746ZM280.877 44.9131H279.846V35.2881H280.877V44.9131Z" fill="#989BA2"/>
<path fill-rule="evenodd" clip-rule="evenodd" d="M337.5 8.60107C334.793 8.60107 332.6 10.7949 332.6 13.5011C332.6 16.2073 334.793 18.4011 337.5 18.4011C340.206 18.4011 342.4 16.2073 342.4 13.5011C342.4 10.7949 340.206 8.60107 337.5 8.60107ZM334.4 13.5011C334.4 11.789 335.788 10.4011 337.5 10.4011C339.212 10.4011 340.6 11.789 340.6 13.5011C340.6 15.2132 339.212 16.6011 337.5 16.6011C335.788 16.6011 334.4 15.2132 334.4 13.5011Z" fill="#989BA2"/>
<path fill-rule="evenodd" clip-rule="evenodd" d="M337.5 19.5995C335.188 19.5995 333.03 20.0521 331.416 20.9216C329.803 21.7905 328.6 23.1657 328.6 24.9995L328.6 25.3272C328.6 25.5139 328.6 25.7039 328.613 25.8663C328.628 26.0471 328.663 26.2713 328.779 26.4996C328.938 26.81 329.19 27.0625 329.501 27.2206C329.729 27.3369 329.953 27.3725 330.134 27.3872C330.296 27.4005 330.486 27.4005 330.673 27.4004L344.326 27.3996C344.513 27.3996 344.703 27.3997 344.866 27.3864C345.046 27.3716 345.27 27.336 345.499 27.2197C345.809 27.0615 346.062 26.8091 346.22 26.4986C346.336 26.2704 346.372 26.0462 346.386 25.8655C346.4 25.703 346.4 25.513 346.4 25.3264L346.4 24.9995C346.4 23.1657 345.196 21.7905 343.583 20.9216C341.969 20.0521 339.812 19.5995 337.5 19.5995ZM330.4 24.9995C330.4 24.0719 330.987 23.1971 332.27 22.5063C333.551 21.8162 335.393 21.3995 337.5 21.3995C339.606 21.3995 341.448 21.8162 342.73 22.5063C344.012 23.1971 344.6 24.0719 344.6 24.9995L344.598 25.5978L330.401 25.5986L330.4 24.9995Z" fill="#989BA2"/>
<path d="M318.269 42.4961H313.768V36.2441H318.269V42.4961ZM314.767 41.6689H317.26V37.0498H314.767V41.6689ZM320.901 39.0586H322.448V39.918H320.901V44.9131H319.881V35.2881H320.901V39.0586ZM331.223 44.9346H330.202V35.2881H331.223V44.9346ZM326.077 36.0078C326.554 36.0078 326.98 36.1475 327.356 36.4268C327.732 36.7025 328.025 37.0964 328.237 37.6084C328.451 38.1169 328.559 38.7077 328.559 39.3809C328.559 40.0576 328.451 40.652 328.237 41.1641C328.025 41.6761 327.732 42.0718 327.356 42.3511C326.98 42.6268 326.554 42.7646 326.077 42.7646C325.594 42.7646 325.164 42.6268 324.788 42.3511C324.412 42.0718 324.117 41.6779 323.902 41.1694C323.691 40.6574 323.585 40.0612 323.585 39.3809C323.585 38.7041 323.691 38.1115 323.902 37.603C324.117 37.091 324.412 36.6971 324.788 36.4214C325.164 36.1457 325.594 36.0078 326.077 36.0078ZM326.077 36.9209C325.78 36.9209 325.517 37.0212 325.288 37.2217C325.062 37.4222 324.887 37.7087 324.761 38.0811C324.636 38.4499 324.573 38.8831 324.573 39.3809C324.573 39.8822 324.636 40.319 324.761 40.6914C324.887 41.0638 325.062 41.3503 325.288 41.5508C325.517 41.7513 325.78 41.8516 326.077 41.8516C326.371 41.8516 326.631 41.7513 326.856 41.5508C327.082 41.3503 327.257 41.0638 327.383 40.6914C327.508 40.319 327.57 39.8822 327.57 39.3809C327.57 38.8831 327.508 38.4499 327.383 38.0811C327.257 37.7087 327.082 37.4222 326.856 37.2217C326.631 37.0212 326.371 36.9209 326.077 36.9209ZM341.426 44.9131H340.449V35.2881H341.426V44.9131ZM339.525 44.4189H338.558V39.8105H337.355V38.8975H338.558V35.5029H339.525V44.4189ZM337.613 37.3076H336.872V41.6099C337.14 41.5884 337.452 41.5544 337.806 41.5078L337.881 42.249C336.718 42.4782 335.128 42.5928 333.112 42.5928L332.994 41.7334L333.939 41.728V37.3076H333.198V36.4697H337.613V37.3076ZM334.863 41.7119C335.343 41.6976 335.697 41.6833 335.926 41.6689V37.3076H334.863V41.7119ZM350.921 44.9346H349.9V35.2881H350.921V44.9346ZM345.775 36.0078C346.251 36.0078 346.678 36.1475 347.054 36.4268C347.43 36.7025 347.723 37.0964 347.934 37.6084C348.149 38.1169 348.257 38.7077 348.257 39.3809C348.257 40.0576 348.149 40.652 347.934 41.1641C347.723 41.6761 347.43 42.0718 347.054 42.3511C346.678 42.6268 346.251 42.7646 345.775 42.7646C345.292 42.7646 344.862 42.6268 344.486 42.3511C344.11 42.0718 343.815 41.6779 343.6 41.1694C343.389 40.6574 343.283 40.0612 343.283 39.3809C343.283 38.7041 343.389 38.1115 343.6 37.603C343.815 37.091 344.11 36.6971 344.486 36.4214C344.862 36.1457 345.292 36.0078 345.775 36.0078ZM345.775 36.9209C345.478 36.9209 345.215 37.0212 344.986 37.2217C344.76 37.4222 344.585 37.7087 344.459 38.0811C344.334 38.4499 344.271 38.8831 344.271 39.3809C344.271 39.8822 344.334 40.319 344.459 40.6914C344.585 41.0638 344.76 41.3503 344.986 41.5508C345.215 41.7513 345.478 41.8516 345.775 41.8516C346.069 41.8516 346.328 41.7513 346.554 41.5508C346.78 41.3503 346.955 41.0638 347.08 40.6914C347.206 40.319 347.268 39.8822 347.268 39.3809C347.268 38.8831 347.206 38.4499 347.08 38.0811C346.955 37.7087 346.78 37.4222 346.554 37.2217C346.328 37.0212 346.069 36.9209 345.775 36.9209ZM356.344 38.124C356.344 38.6576 356.451 39.1857 356.666 39.7085C356.885 40.2313 357.185 40.6986 357.568 41.1104C357.955 41.5186 358.392 41.8265 358.879 42.0342L358.32 42.8291C357.758 42.582 357.261 42.2096 356.827 41.7119C356.394 41.2106 356.065 40.6359 355.839 39.9878C355.613 40.6789 355.282 41.2983 354.845 41.8462C354.412 42.394 353.92 42.804 353.368 43.0762L352.777 42.2705C353.25 42.0485 353.68 41.7173 354.067 41.2769C354.453 40.8328 354.756 40.3333 354.974 39.7783C355.196 39.2197 355.309 38.6683 355.313 38.124V37.1035H353.11V36.2549H358.535V37.1035H356.344V38.124ZM360.77 44.9131H359.749V35.2881H360.77V44.9131Z" fill="#989BA2"/>
</svg>
